<svg width="271" height="76" viewBox="0 0 271 76" fill="none" xmlns="http://www.w3.org/2000/svg">
<path d="M112.401 26.7067C112.401 27.2133 112.23 27.6492 111.889 28.0144C111.559 28.3796 111.141 28.5622 110.634 28.5622C110.116 28.5622 109.739 28.4032 109.503 28.0851C109.267 27.767 109.032 27.2486 108.796 26.53C108.714 26.2591 108.602 26.047 108.46 25.8939C108.331 25.7407 108.137 25.6641 107.877 25.6641C107.571 25.6641 107.335 25.7937 107.17 26.0529C107.017 26.3003 106.882 26.6302 106.764 27.0425L104.626 34.0226H107.595L107.082 35.6483H104.113L101.039 45.7032C100.226 48.3185 99.4894 50.3743 98.8297 51.8704C98.17 53.3784 97.2452 54.6684 96.0553 55.7404C94.8655 56.8242 93.3575 57.3661 91.5315 57.3661C90.2239 57.3661 89.2166 57.0775 88.5098 56.5003C87.7911 55.9348 87.4318 55.2927 87.4318 54.5741C87.4318 54.0322 87.6203 53.5551 87.9973 53.1427C88.3743 52.7422 88.8632 52.5419 89.464 52.5419C90.1826 52.5419 90.6539 52.7304 90.8777 53.1074C91.1015 53.4962 91.2429 53.9968 91.3018 54.6094C91.3725 55.4105 91.7141 55.8111 92.3267 55.8111C92.9275 55.8111 93.4223 55.4753 93.8111 54.8038C94.1999 54.1441 94.5945 53.1251 94.9951 51.7467L99.9253 35.6483H96.8152L97.31 34.0226H100.42L100.756 32.8916C101.215 31.2894 101.722 29.8934 102.276 28.7036C102.829 27.5019 103.648 26.4358 104.732 25.5051C105.827 24.5744 107.194 24.1091 108.832 24.1091C109.444 24.1091 110.027 24.2151 110.581 24.4272C111.135 24.6274 111.576 24.922 111.906 25.3107C112.236 25.6995 112.401 26.1648 112.401 26.7067Z" fill="#4E13A6"/>
<path d="M124.046 39.7304C124.046 40.9084 123.811 42.0571 123.34 43.1762C122.88 44.2954 122.209 45.2968 121.325 46.1803C120.442 47.0639 119.411 47.7589 118.233 48.2655C117.055 48.7603 115.759 49.0077 114.345 49.0077C112.967 49.0077 111.753 48.7426 110.705 48.2125C109.656 47.6706 108.843 46.9166 108.266 45.9506C107.689 44.9728 107.4 43.8654 107.4 42.6284C107.4 41.0498 107.836 39.5536 108.708 38.14C109.58 36.7263 110.764 35.6012 112.26 34.7648C113.768 33.9283 115.393 33.5101 117.137 33.5101C118.586 33.5101 119.835 33.7987 120.883 34.376C121.932 34.9415 122.721 35.7013 123.251 36.6556C123.781 37.6098 124.046 38.6348 124.046 39.7304ZM119.858 38.5111C119.858 37.4154 119.623 36.5554 119.152 35.9311C118.692 35.3067 118.009 34.9945 117.102 34.9945C116.218 34.9945 115.429 35.3244 114.734 35.9841C114.039 36.6438 113.461 37.4743 113.002 38.4757C112.543 39.4653 112.195 40.4667 111.959 41.4798C111.724 42.4812 111.606 43.347 111.606 44.0775C111.606 45.0906 111.836 45.9211 112.295 46.5691C112.755 47.2052 113.403 47.5233 114.239 47.5233C115.17 47.5233 115.994 47.1994 116.713 46.5514C117.432 45.9035 118.021 45.0847 118.48 44.0951C118.951 43.0938 119.299 42.0806 119.523 41.0557C119.746 40.0308 119.858 39.1826 119.858 38.5111Z" fill="#4E13A6"/>
<path d="M142.089 35.825C142.089 36.5672 141.882 37.2269 141.47 37.8042C141.058 38.3697 140.539 38.6524 139.915 38.6524C139.385 38.6524 138.867 38.3402 138.36 37.7159C138.077 37.3506 137.8 37.168 137.529 37.168C137.211 37.168 136.776 37.4685 136.222 38.0693C135.668 38.6583 135.097 39.4476 134.508 40.4372C133.93 41.4268 133.359 42.5636 132.794 43.8477C132.228 45.1201 131.739 46.4277 131.327 47.7707L131.115 48.4952H126.962L129.737 38.5817C130.031 37.6275 130.178 36.9619 130.178 36.5849C130.178 36.4435 130.137 36.308 130.055 36.1785C129.972 36.0371 129.843 35.9664 129.666 35.9664C129.206 35.9664 128.741 36.2904 128.27 36.9383C127.799 37.5745 127.445 38.1576 127.21 38.6878H125.584C126.267 37.3212 126.962 36.2668 127.669 35.5246C128.388 34.7707 129.077 34.2464 129.737 33.9519C130.408 33.6574 131.015 33.5101 131.557 33.5101C132.499 33.5101 133.106 33.8046 133.377 34.3937C133.66 34.9827 133.801 35.56 133.801 36.1254C133.801 37.1504 133.471 38.7643 132.811 40.9673C133.483 39.8128 134.031 38.888 134.455 38.193C134.891 37.4979 135.403 36.7793 135.992 36.0371C136.593 35.2949 137.223 34.6882 137.883 34.217C138.554 33.7457 139.208 33.5101 139.844 33.5101C140.752 33.5101 141.352 33.7693 141.647 34.2876C141.941 34.7942 142.089 35.3067 142.089 35.825Z" fill="#4E13A6"/>
<path d="M24.8046 26.0783V47.4194H28.3735C32.1226 47.4194 35.0786 45.8212 37.2416 42.6249C38.3711 40.7503 38.9359 38.7917 38.9359 36.7489C38.9359 33.6607 37.7643 30.975 35.4211 28.6919C34.6881 28.0791 34.0152 27.6044 33.4023 27.268C31.8642 26.4749 30.3021 26.0783 28.7159 26.0783H24.8046ZM22.3353 23.5549H28.7159C31.7321 23.5549 34.4718 24.5943 36.9351 26.6732C38.0527 27.7306 38.7376 28.4936 38.9899 28.9623C40.6482 31.3295 41.4773 33.925 41.4773 36.7489C41.4773 40.1856 40.2697 43.2437 37.8544 45.9234C35.2949 48.603 32.1286 49.9429 28.3555 49.9429H22.3353L22.2812 49.8888V23.609L22.3353 23.5549Z" fill="#4E13A6"/>
<path d="M52.2113 32.6573C54.6867 32.6573 56.8076 33.7508 58.574 35.9378C59.7396 37.6561 60.3224 39.3324 60.3224 40.9666V41.1829C60.3224 41.7357 60.2863 42.0121 60.2142 42.0121H46.5336C46.5336 42.5888 46.7739 43.3999 47.2546 44.4454C47.9756 45.7912 49.015 46.7285 50.3728 47.2572C51.0337 47.4735 51.6285 47.5816 52.1572 47.5816C53.8035 47.5816 55.2274 46.8667 56.4291 45.4367C56.8496 44.8599 57.126 44.3973 57.2582 44.0488H57.2942C58.2676 44.4333 59.0306 44.7578 59.5834 45.0222C59.319 45.7792 58.7302 46.6624 57.817 47.6718C56.1587 49.294 54.2781 50.1051 52.1753 50.1051C49.6639 50.1051 47.5189 49.0056 45.7405 46.8066C44.5749 45.1363 43.9921 43.3639 43.9921 41.4893V41.3271C43.9921 38.9238 44.8513 36.821 46.5696 35.0185C48.1798 33.4444 50.0604 32.6573 52.2113 32.6573ZM46.7859 39.5247H57.5646C57.0599 37.9505 56.2068 36.7909 55.0051 36.0459C54.1279 35.4812 53.1726 35.1988 52.1392 35.1988C50.3848 35.1988 48.8888 36.0159 47.6511 37.6501C47.2666 38.2149 46.9782 38.8397 46.7859 39.5247Z" fill="#4E13A6"/>
<path d="M64.5315 23.5549H77.6173L77.6353 23.5729V26.0603L77.6173 26.0783H67.0369V35.4872H75.941L75.959 35.5052V37.9926L75.941 38.0106H67.0369V49.9248L67.0189 49.9429H64.5315L64.5134 49.9248V23.5729L64.5315 23.5549Z" fill="#4E13A6"/>
<path d="M81.1234 32.8195H83.6108L83.6288 32.8376V49.9248L83.6108 49.9429H81.1234L81.1054 49.9248V32.8376L81.1234 32.8195ZM82.295 23.5549H82.4392C82.8838 23.5549 83.3044 23.7472 83.7009 24.1317C84.0134 24.5042 84.1696 24.8947 84.1696 25.3033V25.3934C84.1696 25.9101 83.9533 26.3607 83.5207 26.7453C83.1722 27.0216 82.8057 27.1598 82.4212 27.1598H82.313C81.7843 27.1598 81.3277 26.9255 80.9432 26.4569C80.6908 26.1204 80.5647 25.7779 80.5647 25.4295V25.2853C80.5647 24.8286 80.7569 24.4081 81.1414 24.0236C81.514 23.7111 81.8985 23.5549 82.295 23.5549Z" fill="#4E13A6"/>
<path d="M150.45 23.5549H158.723C161.258 23.5549 163.457 24.5643 165.32 26.583C166.666 28.2773 167.339 30.0918 167.339 32.0265V32.2968C167.339 34.4958 166.503 36.4725 164.833 38.2269C163.055 39.9212 161.03 40.7684 158.759 40.7684H152.919V49.8888L152.865 49.9429H150.45L150.395 49.8888V23.609L150.45 23.5549ZM152.919 26.0783V38.2269H158.723C160.706 38.2269 162.37 37.3797 163.716 35.6854C164.449 34.5799 164.815 33.4384 164.815 32.2608V32.0445C164.815 30.218 164.028 28.6559 162.454 27.3581C161.312 26.5049 160.063 26.0783 158.705 26.0783H152.919Z" fill="#4E13A6"/>
<path d="M177.514 32.6573C179.989 32.6573 182.11 33.7508 183.876 35.9378C185.042 37.6561 185.625 39.3324 185.625 40.9666V41.1829C185.625 41.7357 185.589 42.0121 185.517 42.0121H171.836C171.836 42.5888 172.076 43.3999 172.557 44.4454C173.278 45.7912 174.317 46.7285 175.675 47.2572C176.336 47.4735 176.931 47.5816 177.46 47.5816C179.106 47.5816 180.53 46.8667 181.732 45.4367C182.152 44.8599 182.428 44.3973 182.561 44.0488H182.597C183.57 44.4333 184.333 44.7578 184.886 45.0222C184.621 45.7792 184.033 46.6624 183.119 47.6718C181.461 49.294 179.581 50.1051 177.478 50.1051C174.966 50.1051 172.821 49.0056 171.043 46.8066C169.877 45.1363 169.295 43.3639 169.295 41.4893V41.3271C169.295 38.9238 170.154 36.821 171.872 35.0185C173.482 33.4444 175.363 32.6573 177.514 32.6573ZM172.088 39.5247H182.867C182.362 37.9505 181.509 36.7909 180.308 36.0459C179.43 35.4812 178.475 35.1988 177.442 35.1988C175.687 35.1988 174.191 36.0159 172.954 37.6501C172.569 38.2149 172.281 38.8397 172.088 39.5247Z" fill="#4E13A6"/>
<path d="M196.413 32.6934H196.882C198.732 32.6934 200.486 33.4083 202.145 34.8383C204.031 36.6768 204.975 38.8638 204.975 41.3992C204.975 43.9707 203.983 46.1938 202.001 48.0683C200.366 49.4262 198.582 50.1051 196.647 50.1051C194.568 50.1051 192.688 49.336 191.006 47.7979C189.227 45.9594 188.338 43.8566 188.338 41.4893V41.273C188.338 38.9178 189.221 36.827 190.988 35.0005C192.682 33.4624 194.49 32.6934 196.413 32.6934ZM190.861 41.3812V41.4713C190.861 43.1656 191.498 44.6677 192.772 45.9775C193.938 47.0469 195.229 47.5816 196.647 47.5816C198.462 47.5816 200.012 46.7525 201.298 45.0943C202.067 43.9166 202.451 42.679 202.451 41.3812C202.451 39.5667 201.766 37.9986 200.396 36.6768C199.279 35.7035 198.065 35.2168 196.755 35.2168H196.485C195.055 35.2168 193.721 35.8356 192.484 37.0733C191.402 38.335 190.861 39.771 190.861 41.3812Z" fill="#4E13A6"/>
<path d="M217.403 32.6393L217.421 32.6753H217.457L217.475 32.6393C219.554 32.6393 221.434 33.4143 223.117 34.9645C223.994 35.8777 224.607 36.7309 224.955 37.5239C225.508 38.7857 225.784 39.9993 225.784 41.1649V41.5614C225.784 43.7725 224.949 45.7972 223.279 47.6357C221.573 49.282 219.566 50.1051 217.259 50.1051C214.891 50.1051 213.005 49.1318 211.599 47.1851L211.545 47.095H211.527V57.6574L211.473 57.7114H209.057L209.003 57.6574V33.0899L209.057 33.0538H211.473L211.527 33.0899V35.6494C212.861 33.6427 214.819 32.6393 217.403 32.6393ZM211.671 41.3812V41.5614C211.671 43.0274 212.2 44.4213 213.257 45.7431C214.327 46.9568 215.648 47.5636 217.223 47.5636C219.626 47.5636 221.416 46.4641 222.594 44.2651C223.039 43.3399 223.261 42.4146 223.261 41.4893V41.219C223.261 39.5727 222.624 38.0947 221.35 36.7849C220.221 35.7275 218.935 35.1988 217.493 35.1988C214.885 35.1988 213.089 36.4545 212.104 38.9659C211.815 39.735 211.671 40.54 211.671 41.3812Z" fill="#4E13A6"/>
<path d="M229.921 23.5549H232.409L232.427 23.5729V49.9248L232.409 49.9429H229.921L229.903 49.9248V23.5729L229.921 23.5549Z" fill="#4E13A6"/>
<path d="M244.242 32.6573C246.718 32.6573 248.838 33.7508 250.605 35.9378C251.77 37.6561 252.353 39.3324 252.353 40.9666V41.1829C252.353 41.7357 252.317 42.0121 252.245 42.0121H238.564C238.564 42.5888 238.805 43.3999 239.285 44.4454C240.006 45.7912 241.046 46.7285 242.404 47.2572C243.065 47.4735 243.659 47.5816 244.188 47.5816C245.834 47.5816 247.258 46.8667 248.46 45.4367C248.88 44.8599 249.157 44.3973 249.289 44.0488H249.325C250.298 44.4333 251.061 44.7578 251.614 45.0222C251.35 45.7792 250.761 46.6624 249.848 47.6718C248.19 49.294 246.309 50.1051 244.206 50.1051C241.695 50.1051 239.55 49.0056 237.771 46.8066C236.606 45.1363 236.023 43.3639 236.023 41.4893V41.3271C236.023 38.9238 236.882 36.821 238.6 35.0185C240.211 33.4444 242.091 32.6573 244.242 32.6573ZM238.817 39.5247H249.595C249.091 37.9505 248.238 36.7909 247.036 36.0459C246.159 35.4812 245.203 35.1988 244.17 35.1988C242.416 35.1988 240.92 36.0159 239.682 37.6501C239.297 38.2149 239.009 38.8397 238.817 39.5247Z" fill="#4E13A6"/>
</svg>
