<svg width="268" height="75" viewBox="0 0 268 75" fill="none" xmlns="http://www.w3.org/2000/svg">
<path d="M110.922 26.3553C110.922 26.8552 110.754 27.2854 110.416 27.6458C110.091 28.0062 109.678 28.1864 109.178 28.1864C108.667 28.1864 108.295 28.0294 108.062 27.7155C107.83 27.4016 107.597 26.8901 107.365 26.1809C107.283 25.9136 107.173 25.7043 107.033 25.5532C106.905 25.402 106.714 25.3265 106.458 25.3265C106.156 25.3265 105.923 25.4543 105.76 25.7101C105.609 25.9542 105.476 26.2798 105.359 26.6867L103.249 33.5749H106.179L105.673 35.1793H102.743L99.7091 45.1018C98.907 47.6828 98.1803 49.7114 97.5293 51.1879C96.8783 52.676 95.9656 53.949 94.7914 55.007C93.6172 56.0765 92.1291 56.6113 90.3272 56.6113C89.0367 56.6113 88.0427 56.3265 87.3452 55.7568C86.636 55.1988 86.2814 54.5652 86.2814 53.856C86.2814 53.3212 86.4674 52.8504 86.8394 52.4435C87.2115 52.0482 87.6939 51.8506 88.2868 51.8506C88.996 51.8506 89.461 52.0366 89.6819 52.4086C89.9028 52.7923 90.0423 53.2864 90.1005 53.8909C90.1702 54.6815 90.5074 55.0767 91.1119 55.0767C91.7048 55.0767 92.1931 54.7454 92.5767 54.0827C92.9604 53.4317 93.3498 52.4261 93.7451 51.0658L98.6105 35.1793H95.5413L96.0296 33.5749H99.0988L99.4301 32.4588C99.8835 30.8777 100.383 29.5001 100.93 28.3259C101.476 27.1401 102.284 26.0879 103.354 25.1695C104.435 24.2511 105.784 23.7919 107.4 23.7919C108.004 23.7919 108.58 23.8965 109.126 24.1057C109.672 24.3034 110.108 24.594 110.434 24.9777C110.759 25.3613 110.922 25.8205 110.922 26.3553Z" fill="#4E13A6"/>
<path d="M122.414 39.2076C122.414 40.3702 122.182 41.5037 121.717 42.6081C121.263 43.7126 120.601 44.7008 119.729 45.5727C118.857 46.4446 117.839 47.1305 116.677 47.6304C115.514 48.1187 114.235 48.3629 112.84 48.3629C111.48 48.3629 110.283 48.1013 109.248 47.5781C108.213 47.0433 107.411 46.2993 106.842 45.346C106.272 44.3811 105.987 43.2882 105.987 42.0675C105.987 40.5097 106.417 39.0332 107.277 37.6381C108.138 36.243 109.306 35.1328 110.783 34.3073C112.271 33.4819 113.875 33.0692 115.596 33.0692C117.026 33.0692 118.258 33.354 119.293 33.9237C120.327 34.4817 121.106 35.2316 121.629 36.1733C122.153 37.115 122.414 38.1264 122.414 39.2076ZM118.281 38.0043C118.281 36.9231 118.049 36.0745 117.584 35.4583C117.13 34.8421 116.456 34.534 115.561 34.534C114.689 34.534 113.91 34.8596 113.224 35.5106C112.538 36.1616 111.968 36.9813 111.515 37.9694C111.062 38.946 110.719 39.9342 110.486 40.934C110.254 41.9222 110.137 42.7767 110.137 43.4975C110.137 44.4973 110.364 45.3169 110.818 45.9563C111.271 46.5841 111.91 46.898 112.736 46.898C113.654 46.898 114.468 46.5783 115.177 45.9389C115.886 45.2995 116.468 44.4915 116.921 43.5149C117.386 42.5267 117.729 41.5269 117.95 40.5155C118.171 39.504 118.281 38.667 118.281 38.0043Z" fill="#4E13A6"/>
<path d="M140.219 35.3537C140.219 36.0861 140.016 36.7371 139.609 37.3068C139.202 37.8648 138.69 38.1438 138.074 38.1438C137.551 38.1438 137.039 37.8358 136.539 37.2196C136.26 36.8592 135.987 36.679 135.72 36.679C135.406 36.679 134.976 36.9754 134.429 37.5684C133.883 38.1496 133.319 38.9286 132.738 39.9051C132.168 40.8817 131.604 42.0036 131.046 43.2708C130.488 44.5264 130.006 45.8168 129.599 47.1422L129.39 47.8571H125.292L128.029 38.0741C128.32 37.1324 128.465 36.4755 128.465 36.1035C128.465 35.964 128.425 35.8303 128.343 35.7024C128.262 35.5629 128.134 35.4932 127.96 35.4932C127.506 35.4932 127.047 35.8129 126.582 36.4523C126.117 37.0801 125.768 37.6556 125.536 38.1787H123.931C124.606 36.8301 125.292 35.7896 125.989 35.0572C126.698 34.3131 127.378 33.7958 128.029 33.5052C128.692 33.2145 129.291 33.0692 129.826 33.0692C130.756 33.0692 131.354 33.3598 131.622 33.9411C131.901 34.5224 132.04 35.0921 132.04 35.6501C132.04 36.6616 131.715 38.2543 131.064 40.4283C131.726 39.289 132.267 38.3764 132.686 37.6904C133.116 37.0045 133.621 36.2953 134.203 35.5629C134.796 34.8305 135.418 34.2318 136.069 33.7667C136.731 33.3017 137.377 33.0692 138.004 33.0692C138.9 33.0692 139.492 33.325 139.783 33.8365C140.074 34.3364 140.219 34.8421 140.219 35.3537Z" fill="#4E13A6"/>
<path d="M24.4782 25.7352V46.7955H28.0001C31.6999 46.7955 34.6171 45.2183 36.7515 42.064C37.8662 40.2141 38.4235 38.2812 38.4235 36.2653C38.4235 33.2178 37.2674 30.5675 34.955 28.3144C34.2317 27.7096 33.5676 27.2412 32.9628 26.9092C31.445 26.1265 29.9034 25.7352 28.3381 25.7352H24.4782ZM22.0414 23.245H28.3381C31.3145 23.245 34.0182 24.2707 36.4492 26.3222C37.552 27.3657 38.2279 28.1187 38.4769 28.5812C40.1134 30.9173 40.9316 33.4787 40.9316 36.2653C40.9316 39.6568 39.7398 42.6747 37.3563 45.3191C34.8305 47.9635 31.7058 49.2857 27.9824 49.2857H22.0414L21.988 49.2324V23.2983L22.0414 23.245Z" fill="#4E13A6"/>
<path d="M51.5243 32.2276C53.9671 32.2276 56.0601 33.3067 57.8033 35.4649C58.9535 37.1606 59.5286 38.8149 59.5286 40.4276V40.641C59.5286 41.1865 59.4931 41.4593 59.4219 41.4593H45.9213C45.9213 42.0285 46.1585 42.8289 46.6328 43.8606C47.3443 45.1887 48.37 46.1136 49.71 46.6354C50.3622 46.8488 50.9492 46.9556 51.471 46.9556C53.0955 46.9556 54.5008 46.25 55.6866 44.8389C56.1016 44.2697 56.3744 43.8131 56.5048 43.4692H56.5404C57.5009 43.8487 58.2539 44.1689 58.7994 44.4298C58.5385 45.1768 57.9574 46.0484 57.0562 47.0445C55.4198 48.6454 53.5639 49.4458 51.4888 49.4458C49.0104 49.4458 46.8937 48.3608 45.1386 46.1907C43.9884 44.5424 43.4133 42.7933 43.4133 40.9434V40.7833C43.4133 38.4117 44.2611 36.3365 45.9569 34.5578C47.5459 33.0043 49.4017 32.2276 51.5243 32.2276ZM46.1703 39.0046H56.8072C56.3091 37.4512 55.4672 36.3069 54.2814 35.5716C53.4157 35.0143 52.473 34.7356 51.4532 34.7356C49.7219 34.7356 48.2455 35.542 47.0241 37.1547C46.6447 37.7121 46.3601 38.3287 46.1703 39.0046Z" fill="#4E13A6"/>
<path d="M63.6824 23.245H76.596L76.6138 23.2628V25.7174L76.596 25.7352H66.1548V35.0202H74.9418L74.9596 35.038V37.4927L74.9418 37.5105H66.1548V49.2679L66.137 49.2857H63.6824L63.6646 49.2679V23.2628L63.6824 23.245Z" fill="#4E13A6"/>
<path d="M80.056 32.3877H82.5107L82.5285 32.4055V49.2679L82.5107 49.2857H80.056L80.0382 49.2679V32.4055L80.056 32.3877ZM81.2122 23.245H81.3545C81.7932 23.245 82.2083 23.4347 82.5996 23.8142C82.9079 24.1818 83.0621 24.5672 83.0621 24.9704V25.0593C83.0621 25.5692 82.8486 26.0139 82.4217 26.3933C82.0778 26.6661 81.7162 26.8025 81.3367 26.8025H81.23C80.7082 26.8025 80.2576 26.5712 79.8781 26.1087C79.6291 25.7767 79.5046 25.4388 79.5046 25.0949V24.9526C79.5046 24.502 79.6943 24.0869 80.0738 23.7075C80.4414 23.3991 80.8209 23.245 81.2122 23.245Z" fill="#4E13A6"/>
<path d="M148.47 23.245H156.634C159.136 23.245 161.307 24.2411 163.145 26.2333C164.473 27.9053 165.137 29.6959 165.137 31.6051V31.8719C165.137 34.0419 164.313 35.9926 162.664 37.7239C160.909 39.3959 158.911 40.2319 156.67 40.2319H150.907V49.2324L150.853 49.2857H148.47L148.417 49.2324V23.2983L148.47 23.245ZM150.907 25.7352V37.7239H156.634C158.591 37.7239 160.233 36.8879 161.561 35.2159C162.285 34.1249 162.646 32.9984 162.646 31.8363V31.6228C162.646 29.8204 161.87 28.2788 160.316 26.9981C159.19 26.1562 157.957 25.7352 156.617 25.7352H150.907Z" fill="#4E13A6"/>
<path d="M175.178 32.2276C177.621 32.2276 179.714 33.3067 181.457 35.4649C182.607 37.1606 183.182 38.8149 183.182 40.4276V40.641C183.182 41.1865 183.147 41.4593 183.076 41.4593H169.575C169.575 42.0285 169.812 42.8289 170.287 43.8606C170.998 45.1887 172.024 46.1136 173.364 46.6354C174.016 46.8488 174.603 46.9556 175.125 46.9556C176.749 46.9556 178.154 46.25 179.34 44.8389C179.755 44.2697 180.028 43.8131 180.159 43.4692H180.194C181.155 43.8487 181.908 44.1689 182.453 44.4298C182.192 45.1768 181.611 46.0484 180.71 47.0445C179.074 48.6454 177.218 49.4458 175.143 49.4458C172.664 49.4458 170.547 48.3608 168.792 46.1907C167.642 44.5424 167.067 42.7933 167.067 40.9434V40.7833C167.067 38.4117 167.915 36.3365 169.611 34.5578C171.2 33.0043 173.055 32.2276 175.178 32.2276ZM169.824 39.0046H180.461C179.963 37.4512 179.121 36.3069 177.935 35.5716C177.069 35.0143 176.127 34.7356 175.107 34.7356C173.376 34.7356 171.899 35.542 170.678 37.1547C170.298 37.7121 170.014 38.3287 169.824 39.0046Z" fill="#4E13A6"/>
<path d="M193.828 32.2632H194.291C196.117 32.2632 197.848 32.9688 199.485 34.3799C201.347 36.1942 202.277 38.3524 202.277 40.8545C202.277 43.3922 201.299 45.5859 199.343 47.4358C197.73 48.7758 195.969 49.4458 194.06 49.4458C192.008 49.4458 190.152 48.6869 188.492 47.169C186.737 45.3547 185.86 43.2795 185.86 40.9434V40.73C185.86 38.4058 186.731 36.3424 188.474 34.54C190.146 33.0221 191.931 32.2632 193.828 32.2632ZM188.35 40.8367V40.9256C188.35 42.5977 188.978 44.0799 190.235 45.3725C191.386 46.4279 192.66 46.9556 194.06 46.9556C195.85 46.9556 197.38 46.1373 198.649 44.5009C199.408 43.3388 199.787 42.1174 199.787 40.8367C199.787 39.0461 199.111 37.4986 197.759 36.1942C196.657 35.2337 195.459 34.7534 194.166 34.7534H193.9C192.488 34.7534 191.172 35.3641 189.951 36.5855C188.884 37.8306 188.35 39.2477 188.35 40.8367Z" fill="#4E13A6"/>
<path d="M214.542 32.2098L214.56 32.2454H214.596L214.613 32.2098C216.665 32.2098 218.521 32.9747 220.181 34.5044C221.047 35.4056 221.651 36.2476 221.995 37.0302C222.541 38.2753 222.813 39.473 222.813 40.6233V41.0146C222.813 43.1965 221.989 45.1946 220.341 47.0089C218.657 48.6335 216.677 49.4458 214.4 49.4458C212.064 49.4458 210.202 48.4853 208.815 46.5642L208.761 46.4753H208.744V56.8987L208.69 56.9521H206.307L206.253 56.8987V32.6545L206.307 32.6189H208.69L208.744 32.6545V35.1803C210.06 33.2 211.993 32.2098 214.542 32.2098ZM208.886 40.8367V41.0146C208.886 42.4613 209.408 43.8368 210.451 45.1413C211.507 46.3389 212.811 46.9378 214.364 46.9378C216.736 46.9378 218.503 45.8528 219.665 43.6827C220.104 42.7696 220.323 41.8565 220.323 40.9434V40.6766C220.323 39.052 219.695 37.5935 218.438 36.3009C217.323 35.2574 216.054 34.7356 214.631 34.7356C212.058 34.7356 210.285 35.9748 209.313 38.4532C209.028 39.2121 208.886 40.0066 208.886 40.8367Z" fill="#4E13A6"/>
<path d="M226.896 23.245H229.351L229.368 23.2628V49.2679L229.351 49.2857H226.896L226.878 49.2679V23.2628L226.896 23.245Z" fill="#4E13A6"/>
<path d="M241.028 32.2276C243.471 32.2276 245.564 33.3067 247.307 35.4649C248.458 37.1606 249.033 38.8149 249.033 40.4276V40.641C249.033 41.1865 248.997 41.4593 248.926 41.4593H235.425C235.425 42.0285 235.663 42.8289 236.137 43.8606C236.848 45.1887 237.874 46.1136 239.214 46.6354C239.866 46.8488 240.453 46.9556 240.975 46.9556C242.6 46.9556 244.005 46.25 245.191 44.8389C245.606 44.2697 245.878 43.8131 246.009 43.4692H246.044C247.005 43.8487 247.758 44.1689 248.303 44.4298C248.043 45.1768 247.462 46.0484 246.56 47.0445C244.924 48.6454 243.068 49.4458 240.993 49.4458C238.514 49.4458 236.398 48.3608 234.643 46.1907C233.492 44.5424 232.917 42.7933 232.917 40.9434V40.7833C232.917 38.4117 233.765 36.3365 235.461 34.5578C237.05 33.0043 238.906 32.2276 241.028 32.2276ZM235.674 39.0046H246.311C245.813 37.4512 244.971 36.3069 243.785 35.5716C242.92 35.0143 241.977 34.7356 240.957 34.7356C239.226 34.7356 237.75 35.542 236.528 37.1547C236.149 37.7121 235.864 38.3287 235.674 39.0046Z" fill="#4E13A6"/>
</svg>
