<svg width="35" height="33" viewBox="0 0 35 33" fill="none" xmlns="http://www.w3.org/2000/svg">
<path fill-rule="evenodd" clip-rule="evenodd" d="M17.6452 0C8.36777 0 0.842773 7.525 0.842773 16.8024C0.842773 24.2243 5.68763 30.5123 12.2849 32.7801C13.1096 32.8832 13.4188 32.3678 13.4188 31.9555C13.4188 31.5431 13.4188 30.5123 13.4188 29.0692C8.7801 30.1 7.74928 26.8014 7.74928 26.8014C7.0277 24.8428 5.8938 24.3274 5.8938 24.3274C4.34757 23.2966 5.99688 23.2966 5.99688 23.2966C7.6462 23.3997 8.57394 25.049 8.57394 25.049C10.1202 27.626 12.4911 26.9044 13.4188 26.4921C13.5219 25.3582 14.0373 24.6366 14.4496 24.2243C10.7387 23.812 6.82154 22.3688 6.82154 15.8747C6.82154 14.0192 7.44003 12.576 8.57394 11.339C8.47085 11.0298 7.85236 9.27739 8.7801 7.00959C8.7801 7.00959 10.2232 6.59726 13.4188 8.76198C14.7589 8.34965 16.202 8.24657 17.6452 8.24657C19.0883 8.24657 20.5315 8.45274 21.8715 8.76198C25.0671 6.59726 26.5102 7.00959 26.5102 7.00959C27.438 9.27739 26.8195 11.0298 26.7164 11.4421C27.7472 12.576 28.4688 14.1223 28.4688 15.9777C28.4688 22.4719 24.5517 23.812 20.8407 24.2243C21.4592 24.7397 21.9746 25.7705 21.9746 27.3168C21.9746 29.5846 21.9746 31.337 21.9746 31.9555C21.9746 32.3678 22.2839 32.8832 23.1085 32.7801C29.8089 30.5123 34.5506 24.2243 34.5506 16.8024C34.4476 7.525 26.9226 0 17.6452 0Z" fill="#282828"/>
</svg>
